<svg width="499" height="241" viewBox="0 0 499 241" fill="none" xmlns="http://www.w3.org/2000/svg">
<g clip-path="url(#clip0_2_37)">
<mask id="mask0_2_37" style="mask-type:luminance" maskUnits="userSpaceOnUse" x="-1" y="-1" width="502" height="242">
<path d="M-0.076416 240.283H500.887V-0.650787H-0.076416V240.283Z" fill="white"/>
</mask>
<g mask="url(#mask0_2_37)">
<path d="M200.478 207.745C199.317 205.657 197.82 204.588 195.447 204.588C192.952 204.588 190.212 206.411 190.212 209.354C190.212 211.971 192.616 213.346 194.571 214.141L196.812 215.088C201.272 216.941 204.592 219.569 204.592 225.17C204.592 231.261 200.193 235.63 194.571 235.63C189.509 235.63 185.558 231.627 184.885 226.24L188.837 225.354C188.796 229.041 191.536 231.709 194.907 231.709C198.278 231.709 200.682 228.684 200.682 225.17C200.682 221.565 197.983 220.017 195.284 218.815L193.125 217.838C189.55 216.198 186.291 214.018 186.291 209.354C186.291 203.926 190.792 200.677 195.528 200.677C199.022 200.677 201.894 202.5 203.594 205.749L200.478 207.745Z" fill="white"/>
<path d="M217.322 234.911H213.411V205.213H205.977V201.384H224.767V205.213H217.322V234.911Z" fill="white"/>
<path d="M231.213 201.388V221.166C231.213 226.645 232.751 231.707 238.78 231.707C244.81 231.707 246.347 226.645 246.347 221.166V201.388H250.258V222.592C250.258 229.975 245.971 235.628 238.78 235.628C231.59 235.628 227.302 229.975 227.302 222.592V201.388H231.213Z" fill="white"/>
<path d="M259.247 231.087H260.622C268.596 231.087 275.501 227.89 275.501 218.153C275.501 208.366 268.596 205.209 260.622 205.209H259.247V231.087ZM255.336 201.39H261.824C271.438 201.39 279.412 206.808 279.412 217.97C279.412 229.397 271.591 234.907 261.691 234.907H255.336V201.39Z" fill="white"/>
<path d="M287.116 234.916H283.204V201.389H287.116V234.916Z" fill="white"/>
<path d="M319.708 218.148C319.708 210.765 314.555 204.583 307.191 204.583C299.838 204.583 294.685 210.765 294.685 218.148C294.685 225.797 300.419 231.714 307.191 231.714C313.974 231.714 319.708 225.797 319.708 218.148ZM323.619 218.148C323.619 228.109 316.266 235.615 307.191 235.615C298.127 235.615 290.774 228.109 290.774 218.148C290.774 208.544 298.219 200.682 307.191 200.682C316.174 200.682 323.619 208.544 323.619 218.148Z" fill="white"/>
<path d="M367.989 218.016V219.35C367.989 228.557 361.92 235.625 353.151 235.625C344.372 235.625 337.304 227.528 337.304 218.24C337.304 208.595 344.545 200.672 353.558 200.672C358.426 200.672 363.254 203.024 366.329 207.169L363.59 209.97C361.339 206.681 357.55 204.501 353.731 204.501C346.704 204.501 341.215 210.591 341.215 218.097C341.215 225.135 346.622 231.795 353.395 231.795C358.263 231.795 363.498 227.314 363.661 221.835H355.554V218.016H367.989Z" fill="white"/>
<path d="M390.366 214.902V201.388H394.277V234.905H390.366V218.823H375.446V234.905H371.535V201.388H375.446V214.902H390.366Z" fill="white"/>
<path d="M403.727 234.916H399.816V201.389H403.727V234.916Z" fill="white"/>
<path d="M413.16 231.175H416.155C419.77 231.175 423.548 230.024 423.548 225.258C423.548 220.553 419.067 219.565 415.574 219.565H413.16V231.175ZM413.16 216.245H414.158C417.866 216.245 420.89 215.44 420.89 210.633C420.89 205.918 417.896 205.123 414.24 205.123H413.16V216.245ZM409.25 201.386H413.079C418.976 201.386 424.547 203.025 424.547 210.592C424.547 213.027 423.304 215.878 421.176 216.948V217.029C424.883 217.752 427.459 221.612 427.459 225.523C427.459 232.245 422.102 234.913 416.572 234.913H409.25V201.386Z" fill="white"/>
<path d="M435.744 231.087H445.266V234.907H431.833V201.39H435.744V231.087Z" fill="white"/>
<path d="M451.615 234.916H447.704V201.389H451.615V234.916Z" fill="white"/>
<path d="M141.74 179.047C151.375 175.269 162.16 164.962 166.916 151.05H144.225V145.968H173.546C172.976 148.575 171.367 156.275 165.164 165.329C167.741 167.528 174.117 173.069 179.922 179.179L175.807 183.62C174.025 181.379 170.847 177.407 162.201 169.341C159.156 173.069 153.086 179.801 144.755 183.426L141.74 179.047Z" fill="white"/>
<path d="M195.056 159.869C196.93 160.714 200.596 162.394 205.179 166.489C209.018 161.223 210.017 156.223 210.414 154.318H195.147C190.819 160.714 187.112 163.464 183.669 165.603L180.4 161.682C188.028 157.435 192 151.803 195.005 143.441L200.29 144.511C199.455 146.476 198.936 147.688 197.979 149.47H216.565C215.425 156.783 211.677 178.201 185.94 184.607L183.15 179.983C186.103 179.464 193.528 178.16 201.686 170.461C197.327 166.356 193.355 164.35 191.644 163.464L195.056 159.869Z" fill="white"/>
<path d="M219.893 177.506C236.341 176.06 243.806 170.733 249.468 152.126L254.194 154.367C248.256 172.047 240.883 180.724 221.115 183.108L219.893 177.506ZM252.656 149.56C251.658 145.354 250.823 143.449 250.385 142.421L253.929 141.575C255.151 144.274 255.976 147.36 256.282 148.48L252.656 149.56ZM246.291 150.538C245.68 147.36 245.12 145.496 244.234 143.021L247.819 142.186C248.908 144.987 249.305 146.199 250.039 149.601L246.291 150.538ZM229.67 165.987C224.608 163.034 219.546 161.272 217.408 160.569L219.404 155.722C221.033 156.221 227.531 158.288 231.676 160.712L229.67 165.987ZM233.031 155.161C228.702 152.819 224.608 151.24 220.85 150.069L222.948 145.17C229.527 147.268 232.807 148.857 235.251 150.069L233.031 155.161Z" fill="white"/>
<path d="M299.877 177.506C316.325 176.06 323.79 170.733 329.452 152.126L334.178 154.367C328.24 172.047 320.867 180.724 301.099 183.108L299.877 177.506ZM332.64 149.56C331.642 145.354 330.807 143.449 330.369 142.421L333.913 141.575C335.135 144.274 335.96 147.36 336.266 148.48L332.64 149.56ZM326.275 150.538C325.664 147.36 325.104 145.496 324.217 143.021L327.802 142.186C328.892 144.987 329.289 146.199 330.023 149.601L326.275 150.538ZM309.654 165.987C304.592 163.034 299.53 161.272 297.392 160.569L299.388 155.722C301.017 156.221 307.515 158.288 311.66 160.712L309.654 165.987ZM313.015 155.161C308.696 152.819 304.592 151.24 300.834 150.069L302.932 145.17C309.521 147.268 312.791 148.857 315.235 150.069L313.015 155.161Z" fill="white"/>
<path d="M373.796 148.297C373.49 146.423 372.655 143.297 371.922 141.524L375.497 140.832C376.321 143.123 376.719 144.519 377.33 147.411L373.796 148.297ZM369.213 141.199C370.007 143.164 370.435 144.753 371.046 147.696L369.732 147.88V147.971H372.35C371.616 168.269 362.063 179.788 345.697 183.535L342.947 178.535C349.974 177.089 364.416 174.003 366.768 153.013H339.148V147.971H367.115C366.728 145.639 366.331 144.244 365.465 141.85L369.213 141.199Z" fill="white"/>
<path d="M408.921 162.296C408.921 169.629 407.658 175.362 402.586 179.467C398.624 182.695 394.56 183.52 385.751 184.549L384.142 179.416C395.314 178.672 403.777 176.809 403.777 164.771V144.565H408.921V162.296ZM386.892 170.749H381.84V145.41H386.892V170.749Z" fill="white"/>
<path d="M437.016 142.325C436.67 143.863 436.273 145.543 435.224 148.252H454.034V152.866H439.542V159.496H452.945V164.109H439.542V170.79H452.945V175.363H439.542V185.823H434.837V152.866H433.177C430.254 158.61 427.901 161.268 426.547 162.857L423.573 158.885C428.339 153.945 431.13 146.531 432.179 141.765L437.016 142.325ZM418.216 161.319H418.124C416.647 163.376 415.456 164.537 414.284 165.657L412.278 161.044C417.116 156.186 420.039 150.87 421.963 141.805L426.587 142.651C425.976 144.891 424.978 148.772 422.829 153.385V185.823H418.216V161.319Z" fill="white"/>
<path d="M466.464 155.528H487.76V147.594H466.464V155.528ZM462.156 143.215H491.996V159.928H462.156V143.215ZM482.555 179.054H491.844V167.994H482.555V179.054ZM457.99 163.696H474.957V185.307H470.772V183.393H462.156V185.633H457.99V163.696ZM462.156 179.054H470.803V167.994H462.156V179.054ZM478.339 163.696H496.049V185.633H491.864V183.393H482.555V185.633H478.339V163.696Z" fill="white"/>
<path d="M258.311 176.183C271.5 166.6 275.951 157.933 276.643 156.456L258.077 156.436V151.303H279.648V143.491H284.506V151.303H294.395V156.558H284.546L284.557 183.893H279.648L279.658 160.652C279.658 160.652 275.716 170.174 261.173 180.614L258.311 176.183Z" fill="white"/>
<path d="M140.314 191.98H499V192.571H140.314" fill="white"/>
<path d="M144.254 70.9409V71.4196L143.48 71.6844L141.362 71.6334L139.243 71.7251L139.131 71.5112L140.109 70.9002C141.524 71.165 142.757 70.4622 144.05 70.8187L144.254 70.9409Z" fill="white"/>
<path d="M93.307 118.201L92.9403 118.639L92.2478 119.556L91.7589 120.116L90.2923 121.297L88.7952 122.285C87.8175 123.161 86.4732 123.823 84.8844 124.077L82.9697 124.291C81.8698 124.169 80.6578 124.169 79.7616 123.68L78.7839 123.375C77.4905 122.703 76.9914 122.214 76.5026 120.808L76.4618 120.462H76.3804L76.2989 119.372L76.1767 119.067L75.973 116.684V116.327H76.0137L76.0545 114.586L76.2072 114.239L76.3804 113.893H76.4618L76.5026 113.333H76.5331L76.6655 112.885V111.286L76.8285 110.98L76.8998 110.583L76.9914 109.89H77.0729L77.1137 109.493H77.1544L77.2766 109.106V108.841H77.3581L77.4396 108.373H77.5108L78.2543 106.978L78.7024 106.407C79.6801 105.806 80.5254 104.92 82.0735 104.839L83.866 104.228C84.8437 104.279 85.7399 104.533 86.7176 104.717L88.7545 105.705L89.9664 107.018H90.0479L90.1396 107.283H90.2109L90.5775 107.976C92.1765 111.092 92.8894 113.068 93.1847 116.684L93.2255 117.071H93.307V118.201ZM96.3928 118.282L95.3031 117.682L94.9772 117.417L94.7328 117.193L94.5698 116.5H94.4782L94.3661 114.586H94.3254L94.2439 114.076L94.1115 113.282L93.9588 112.019H93.8773L93.7551 111.408H93.7143L93.5514 110.889L93.3884 110.277L93.0625 109.32H92.981L92.7875 108.801C91.2497 105.043 90.3942 104.208 86.4732 103.24L85.251 102.843C83.9474 102.792 82.5216 102.843 81.3504 103.281C80.4134 103.179 79.9144 103.708 79.2728 104.055L77.684 105.185L77.2257 105.888L77.1137 106.234L76.6248 106.886L76.3804 107.192L76.2582 107.67H76.2072L76.0137 108.057V108.19L75.8915 108.628H75.8508L75.7286 109.279H75.6471V109.493L75.5656 110.277H75.4841L75.4027 111.286H75.3212L75.199 111.846H75.1582L75.036 112.579H74.9953L74.9545 113.109H74.8731V113.547H74.7916L74.8731 114.28L74.0583 115.635H74.0176L74.0583 116.072L74.0991 116.195L74.8731 117.193H74.7916V117.508L74.7509 118.588L74.8731 119.25L74.9953 119.943L75.036 120.156H75.1175L75.1582 120.554L75.3212 121.073L75.4841 121.419L76.1359 122.387L77.5108 123.68L78.8145 124.729C80.1588 125.076 81.4217 125.9 83.0512 125.513C83.9882 125.381 85.1696 125.422 85.7806 124.811L86.9213 124.597L87.8175 124.342L89.722 123.334L91.0664 122.326C92.0033 121.816 92.4515 120.951 93.2255 120.33L93.9588 119.413L94.2439 119.158L95.9142 118.944L96.3928 118.282Z" fill="white"/>
<path d="M59.574 106.365L59.6962 106.405H59.6555V106.487H59.6147L59.3296 107.577H59.2481L59.1259 108.239H59.0851L58.9629 109.053H58.9222L58.8407 109.542L58.7185 110.286H58.637V110.673H58.5555L58.2704 111.243L57.7815 110.937L57.751 110.591H57.8223L57.9037 109.369H57.9852L58.1074 108.809H58.1482L58.1889 108.32H58.2704L58.3519 107.678H58.4333L58.637 107.016L58.7185 106.752L58.8815 106.487V106.324L58.9629 106.242L59.3296 105.978L59.574 106.365Z" fill="white"/>
<path d="M60.5505 109.149L60.5912 109.332L60.6727 109.76H60.5912L60.469 110.463L59.7765 110.667L59.6135 109.76L59.7765 109.373L60.5505 109.149Z" fill="white"/>
<path d="M62.0575 110.064L62.2204 110.329V111.022L61.9353 111.276L61.2834 110.675L61.3242 110.288L61.4464 110.187L62.0575 110.064Z" fill="white"/>
<path d="M64.3344 111.326L64.4158 111.805L64.1714 112.111L63.4891 111.846L63.3159 111.408L63.3567 110.939H63.9677L64.3344 111.326Z" fill="white"/>
<path d="M80.7335 115.111L80.4891 114.806L80.4076 114.154L80.6928 114.021L80.815 114.154L80.8557 114.368L80.7335 115.111ZM81.7112 113.981L81.5381 113.064H81.4668L81.3853 112.066L81.1409 111.587L80.4891 110.925C79.1855 110.498 78.7781 111.628 78.2179 112.239L77.9633 112.585L77.8411 113.023H77.8004V113.288L77.6782 113.675H77.6069L77.5254 115.457L77.6782 117.066L77.8004 117.291L78.6966 118.727L80.4076 118.635L80.8964 118.329L81.4668 117.291H81.5381L81.6297 116.812C81.5381 115.763 81.8334 114.989 81.7112 113.981Z" fill="white"/>
<path d="M46.4713 121.9L46.6342 122.165L46.9499 122.644L47.0416 123.112L46.5527 123.683L44.2307 124.294L42.9373 123.642L43.09 123.296H43.1308L43.2632 122.766H43.3446L43.4159 122.287L43.864 121.717L45.7787 121.33L46.4713 121.9Z" fill="white"/>
<path d="M88.7487 137.306C87.0784 137.347 85.4998 137.306 83.8703 137.306L82.1593 137.092L81.8334 136.787L82.1084 136.654L85.7748 137.041C86.7932 136.736 87.771 137.184 88.7487 137.225V137.306ZM123.62 141.492C122.123 140.962 120.371 140.962 118.935 140.402C117.561 140.259 116.287 139.832 114.79 139.954L113.334 139.659L111.949 139.394C110.89 139.18 109.749 139.129 108.608 139.048C107.631 138.518 106.246 138.864 105.349 138.355C103.72 138.263 102.467 137.489 100.838 137.693C99.6868 137.652 98.76 137.225 97.5379 137.347C96.3666 137 94.9306 137.184 93.7594 136.96L91.5494 136.787C90.0115 136.613 88.382 136.44 86.7932 136.613C85.4082 136.349 83.9518 136.135 82.3936 136.176L80.4076 135.87L80.0409 136.654H79.9595L80.0002 137.092L80.9779 138.223C82.2001 138.559 83.6259 139.048 85.0008 138.661C86.1007 138.701 87.1599 138.864 88.2191 138.742C89.2375 138.915 90.2967 138.701 91.2744 138.966L93.2604 139.129C94.564 139.221 95.8269 139.088 97.0897 139.302C98.0674 139.048 98.8822 139.526 99.8599 139.567L103.353 139.832C104.545 140.219 105.96 140.005 107.142 140.31C108.242 140.351 109.342 140.351 110.36 140.616L112.641 140.83L114.546 141.227L116.257 141.492C117.479 141.92 118.935 141.879 120.168 142.317L122.276 142.745L124.028 142.52L124.109 142.398L123.62 141.492Z" fill="white"/>
<path d="M74.1835 142.485C75.4056 142.872 76.9435 142.566 78.1758 143.137L79.9173 143.534L81.0172 143.921C82.0357 143.921 83.0541 144.267 84.1031 144.308L84.9688 145.275V145.795C83.4208 145.703 82.1273 145.092 80.6099 144.929L78.6544 144.481C76.3324 144.399 74.3872 143.137 71.9836 143.656L70.5578 142.75L70.405 142.22L71.9429 142.301L74.1835 142.485Z" fill="white"/>
<path d="M121.832 154.191C120.773 154.629 119.642 154.15 118.624 154.018C117.147 153.407 115.406 153.02 113.898 152.449V152.409L111.831 152.062C110.762 151.665 109.59 151.502 108.399 151.319L106.535 150.749C104.865 150.005 102.787 149.404 101.046 148.793C99.3244 148.528 97.868 147.887 96.32 147.398L94.6905 146.665L94.7312 146.532C95.6682 146.44 96.4015 146.838 97.2162 146.97C98.3976 147.581 99.9762 147.744 101.28 148.141L102.624 148.314C103.806 148.671 105.191 148.793 106.25 149.363C107.268 149.618 108.032 150.27 109.183 150.362C110.568 150.881 112.147 151.186 113.532 151.665L116.098 152.185C117.035 152.449 118.084 152.531 118.95 152.928L120.294 153.325L121.873 153.967H121.914L121.832 154.191ZM124.113 154.109L123.502 153.407L122.117 152.409C121.221 152.449 120.732 151.838 119.836 151.93C119.103 151.584 118.492 151.095 117.473 151.146C115.884 150.575 113.98 150.311 112.228 149.964L110.354 149.139L108.287 148.488L106.779 147.887L104.824 147.316C102.543 146.573 100.109 146.308 97.7458 145.656C96.7274 145.361 95.4645 145.442 94.5683 144.974C90.6269 144.363 87.0012 143.232 83.1821 142.438C82.3571 141.919 81.0535 142 80.086 141.613L79.149 141.44C78.212 141.226 77.1121 141.175 76.2159 140.87L75.2382 140.707L73.1198 140.045C72.1115 139.434 70.7265 139.963 69.8608 140.35L69.708 140.564L69.8302 141.226L70.92 140.788L72.5087 141.226C73.9346 141.399 75.1974 141.796 76.501 142.183L77.0714 142.397L78.4565 142.917C79.6684 143.049 80.9007 142.917 81.909 143.395C83.1821 143.579 84.2311 144.18 85.5754 143.874L86.0235 144.18C86.9198 144.22 87.6123 144.709 88.3048 145.015L87.5308 145.402L86.9198 146.145L87.042 146.227C88.1317 146.614 89.2825 146.787 90.413 147.184C91.7981 147.398 92.9795 148.101 94.4461 148.182C96.6459 148.926 98.8763 149.445 101.046 150.188C102.095 150.535 103.439 150.708 104.417 151.186L105.272 151.502C106.362 151.665 107.105 152.317 108.246 152.368C109.458 152.714 110.68 153.02 111.872 153.407L114.387 154.069C115.976 154.456 117.687 154.761 119.184 155.281C120.243 155.362 121.18 155.24 122.117 155.545L124.113 154.761V154.109Z" fill="white"/>
<path d="M44.4768 148.228L44.599 148.666L44.3139 148.921L42.1548 148.747L42.114 148.228L42.3584 147.882L43.988 147.698L44.4768 148.228Z" fill="white"/>
<path d="M103.846 164.244L103.601 164.163L101.238 163.114L99.1201 162.024L97.0526 160.934L94.7305 160.119C93.6714 159.63 92.4085 159.366 91.39 158.806C90.3309 158.5 89.3532 158.154 88.5486 157.492L86.8376 156.932C85.9821 156.585 85.3303 156.015 84.3933 155.801L83.1304 155.363L80.8186 154.233L79.8001 153.53L80.0853 153.184C81.4704 153.326 82.4073 154.192 83.823 154.365L84.3526 154.538C85.5747 155.068 86.9598 155.363 88.0495 156.056C88.9967 156.361 90.005 156.758 90.8197 157.145L92.7751 158.154L93.9565 158.806C94.9342 159.193 96.0342 159.671 96.8387 160.242L98.6414 161.026L99.8126 161.494L102.257 162.849L103.846 164.02V164.244ZM109.091 166.505L107.879 165.558L106.606 164.366L104.049 162.584C102.949 161.637 101.33 161.199 100.179 160.242L98.5905 159.417L97.8979 159.111L97.0933 158.622C96.1564 158.581 95.7897 157.889 95.0157 157.716L93.3455 156.983L91.1456 156.096L89.2411 155.363L87.6523 154.722C86.7459 154.1 85.5747 153.795 84.5155 153.367C83.4665 153.235 82.5601 152.756 81.5824 152.542L81.4704 152.4L79.0261 152.318L78.5678 152.837L78.4558 153.326H78.415L78.6595 154.192L79.8816 155.282C81.4296 155.852 82.886 156.667 84.4442 157.186L86.6339 158.103C87.4487 158.765 88.7828 158.846 89.7198 159.325C90.5447 160.119 91.9604 160.058 92.9075 160.761C94.4046 160.934 95.2092 161.942 96.7267 162.115L96.8387 162.238L98.8349 163.195L100.301 163.765C101.564 164.122 102.705 164.631 103.601 165.415C104.538 165.497 105.271 166.026 106.168 166.24L107.013 166.729L108.928 166.933L109.142 166.637L109.091 166.505Z" fill="white"/>
<path d="M66.8179 173.904H66.9809L67.2253 174.25C67.9993 174.648 68.6409 175.167 69.5779 175.381L70.5251 176.206L70.4843 176.695L70.4028 176.858L71.2889 177.387C72.3481 177.56 73.0406 178.09 73.9776 178.294L74.6294 178.864L74.9553 179.567L75.159 179.73L75.3219 180.127L75.4034 180.779H75.4849C77.0431 182.51 77.9088 183.885 79.4263 185.565L79.7929 186.217H79.8846C80.954 187.684 82.9603 189.272 83.5001 190.963L83.9482 191.656C84.6 192.572 85.5573 194.029 85.8221 195.19L85.9443 196.789L86.0666 197.4H86.1073L86.311 197.756L86.4739 198.968H86.5452L86.8406 199.661L87.0035 200.017C87.2378 200.913 88.297 201.249 88.633 202.757L88.7553 203.021L88.908 203.663L88.9997 204.02L89.1219 205.802L89.5191 206.851L89.7737 207.279L90.1302 207.767L91.0366 208.541L92.3809 209.896L92.5744 210.293L92.7374 212.075H92.6559L92.5337 212.676H92.4929L92.4522 213.287H92.3809L92.4115 213.369H92.3809V213.461H92.4522L92.4929 215.895L92.6559 218.074L92.8596 219.245L92.9003 219.775H92.9818V219.999L93.0327 220.773L93.104 221.211H93.1448L93.104 223.217L93.5521 223.818L93.5114 224.562H93.4299L93.3484 225.173H93.267L93.2262 225.519H93.1855L93.0633 226.079L92.6152 226.527L92.167 226.303V225.692H92.2485L92.3809 224.867L92.5337 224.042V223.777H92.6152L92.5744 223.258L91.556 222.341L91.4745 221.822H91.556L91.6884 221.333V220.681H91.7291V220.162H91.8004L91.7291 219.378L91.556 218.991L91.4338 218.604L91.3116 218.42L91.1893 217.86H91.1079L91.0773 216.424L91.0366 215.548H91.1079V214.112H91.0366V212.554H91.1079V211.811H91.1893L90.9449 210.415H90.8634L90.7107 210.11L89.8857 209.285L89.0404 208.419L88.2155 207.37L88.1442 206.983H88.0627L88.022 206.586L87.9303 205.547L87.6146 204.712L87.5229 204.06H87.4516L87.2887 203.103L87.1665 202.838L87.0035 202.492L86.3517 201.28H86.311L86.1073 200.974L85.7407 200.272L85.6184 200.058L85.3333 199.661H85.2518L85.0888 199.233L84.9259 198.673L84.8852 198.265H84.8037L84.6815 197.135L84.6 196.626L84.437 194.925H84.3556L84.1926 194.487L83.7852 193.662L83.5408 193.132H83.5001L83.2964 192.827L82.9399 192.185H82.8992L82.6853 191.788C81.453 189.934 81.1373 189.059 79.0189 187.388L78.0819 186.136H78.0514L77.7153 185.565C76.3302 183.274 74.8025 183.294 74.0183 180.86L73.2036 179.607H73.1323L71.7472 178.823L69.7103 177.907L69.6594 177.52H69.5779L69.3335 176.949C68.315 176.949 68.1215 176.084 67.4697 175.727L65.6773 174.729L65.3208 173.599L65.8402 173.385L66.8179 173.904Z" fill="white"/>
<path d="M43.8667 213.115L43.7853 214.47H43.7038L43.6631 214.857H43.6223L43.5001 216.333L43.5816 216.506H43.5408L43.5001 218.075H43.4186L43.2557 218.686V218.818L42.7668 218.991L42.2372 218.778L41.8706 218.075L41.7178 217.861L41.504 217.423L41.3003 216.853L40.8929 216.293L40.8521 216.16L39.8744 214.816L39.6809 214.592L39.2634 213.767L39.2226 213.38H39.1412L38.7847 212.769L38.1634 212.596L37.8375 212.331L37.3996 211.72L35.9738 210.508C34.9961 210.111 34.4665 209.194 33.0814 209.337L31.4111 209.856V209.978L29.2622 209.897L29.2215 209.764L29.2622 209.113L30.9325 207.595L31.7778 206.933L33.0407 205.976L34.1813 204.845L35.4849 203.796L36.5034 203.063C37.3996 202.717 38.0922 202.106 39.0699 201.8L39.8744 201.932L40.3327 202.36L40.7707 202.849L40.9744 203.287L41.4225 203.796L41.7484 204.193L41.9113 204.58L42.115 205.375H42.1965L42.3696 205.854L42.5631 206.403L42.7261 206.892H42.8076L42.9298 207.493L43.052 207.758L43.1335 208.064L43.4186 209.805H43.5001L43.6223 211.944H43.6631L43.8667 212.993L43.7853 213.115H43.8667ZM44.7222 212.066L44.6408 211.027L44.4371 209.897H44.4778L44.3149 208.848H44.2334L44.1519 208.023H44.0704L43.989 207.636L43.8667 206.505L43.7038 206.057H43.6223L43.3779 205.11L43.2557 204.54H43.1742L43.0113 203.796L42.8076 203.409L42.6446 203.022L42.4817 202.666L42.3696 202.544L40.8929 201.189L39.4671 200.272C37.919 199.834 36.9006 200.965 36.0145 201.668L35.159 202.36L33.448 203.104L32.9999 203.542L32.562 203.98L31.9102 204.54L31.0852 205.192C30.1992 205.629 29.7816 206.505 28.9771 207.106L28.6104 207.493C27.816 208.349 27.1235 209.275 26.3291 210.162V210.549H26.4106L26.4513 210.813L27.0216 211.557C28.6919 211.985 30.3214 211.414 31.8593 211.16L33.611 210.813C34.5887 210.549 34.9146 211.333 35.5562 211.679L36.5034 212.636L37.5931 213.38L37.644 213.553H37.7255C38.4384 214.612 39.4263 215.559 40.0476 216.69L40.4448 217.423H40.5262L40.6077 217.688L40.7707 217.983H40.8521L41.066 218.594H41.1373L41.5447 219.511L41.7484 219.765L43.4186 220.641L44.2334 220.214L44.3149 220.122L44.3454 219.725L44.5186 217.81H44.6V217.036H44.5186V215.682H44.6V215.162H44.6408L44.6713 214.633H44.763L44.8852 213.767H44.9259L44.9667 213.38H45.0074V212.81L44.7222 212.066Z" fill="white"/>
<path d="M72.5959 238.573L72.3108 238.879L71.2516 238.695C69.8767 237.636 68.8379 236.2 67.7074 234.876L67.5852 234.744C67.0658 234.092 65.8844 233.746 64.9067 233.878L62.829 233.44C61.7291 233.175 60.8736 233.827 59.8552 233.562L59.4885 233.053L59.4478 233.002H59.4885L59.5293 232.269L59.8144 231.963L60.3135 231.566L60.8329 231.169L62.4217 229.784V229.692L62.8698 229.132L64.0919 227.818L64.8659 227.177C65.5585 226.382 66.3732 225.781 67.5852 225.517L68.9703 225.384L70.2739 226.525L70.5183 226.83L70.6813 227.085L71.0886 228.124H71.1701L71.2923 228.521L71.4146 228.745L71.6182 229.173L71.7405 229.825L71.8219 230.426C72.0969 231.393 71.771 232.911 72.0969 233.827L72.2293 234.53H72.3108L72.4228 236.526H72.4737L72.5552 237.565L72.6774 238.186L72.5959 238.573ZM73.9403 238.227L73.7672 236.526L73.6959 235.701H73.7366L73.6144 235.131L73.5737 234.958L73.207 233.257H73.1663V233.053H73.207V231.699L73.1154 229.916H73.0441L72.9626 229.132L72.8404 228.827L72.6774 228.389H72.5959L72.5145 227.859L72.3923 227.655L72.2293 227.299H72.1886L72.0664 227.044L71.6997 226.647L70.885 225.557L69.174 224.04L67.9518 223.775C66.7399 223.51 66.2103 224.427 65.2326 224.692V224.732L63.929 225.69L61.8921 227.696L61.6884 228.042V228.215L61.5254 228.521L61.3625 228.827L60.1404 230.303L59.0099 231.22L58.4701 232.004L58.2766 232.391L57.6655 233.135V233.746L57.8998 234.092C58.5516 234.835 60.0589 235.222 61.1995 234.835L62.6254 234.876L64.9372 234.958L64.978 234.489H65.0696L65.1104 234.876H65.0289L65.1511 235.222H65.3955L66.8926 235.742V235.823L67.5852 236.445L67.7583 236.791L68.4509 237.748L68.6036 237.962L69.2554 238.838H69.3369L70.0295 239.53L71.9849 240.091L73.6551 239.785L73.9403 239.225H74.0218V238.227H73.9403Z" fill="white"/>
<path d="M203.137 138.262L203.178 138.609L203.463 140.177L203.585 140.707L203.667 141.481H203.748L203.952 142.306H204.033L204.115 143.181H204.196L204.278 143.701H204.359L204.4 144.047L204.767 145.402H204.807L204.848 145.921L205.011 146.919H205.092L205.174 147.612H206.335L206.304 147.052H206.223L206.192 146.654L206.07 145.921H205.978L205.866 145.402H205.826L205.663 144.872L205.541 144.312L205.459 143.355H205.378L205.245 142.835H205.215L205.052 142.265L205.011 141.705L204.889 141.481L204.593 139.963L204.563 139.434H204.481L204.4 138.873L204.278 138.568L204.115 138.14H204.033L203.952 137.57H203.87L203.748 136.949L203.422 136.175L203.259 135.655H203.178L202.974 135.003L202.811 134.647L202.648 134.301L202.444 133.822H202.404L202.2 132.865H202.119L201.915 131.999L201.752 131.51L201.589 131.205H201.507L201.314 130.604L201.141 130.217L200.856 129.473L200.693 129.035H200.621L200.408 128.119L200.245 127.732H200.163L200.01 127.121H199.929L199.715 126.296L199.552 125.99L199.389 125.644H199.318L199.104 125.033L198.951 124.473L198.778 124.035L198.452 123.2L198.299 122.731L198.055 122.11H197.973L197.933 121.682L197.8 121.203L197.607 120.287H197.556L197.434 119.645L197.322 119.421L197.189 119.034H197.108L196.996 118.372H196.955L196.863 118.026L196.751 117.415L196.588 116.936H196.497L196.303 116.284L196.13 115.897L195.478 114.848L195 114.288L194.307 113.28L194.389 112.506L194.501 111.976H194.551L194.501 111.416L194.103 110.449L193.94 110.021H193.859L193.777 109.756H193.696L193.492 109.369H193.411L193.329 109.104H193.248L192.963 108.585C191.201 106.212 190.243 103.992 188.858 101.578L188.451 100.743H188.359L187.993 100.142C187.117 99.0624 186.322 97.7995 185.151 97.0458L184.092 96.1802L182.625 96.6996L182.87 97.4023L184.459 98.3189L186.17 99.7447L186.944 100.539L188.074 101.67L187.708 102.138L187.107 102.749L186.862 103.004L186.74 103.146L186.862 103.574L186.984 103.717L188.645 104.318V104.399H188.726C189.836 105.733 190.824 107.179 191.822 108.626L191.985 109.013H192.066L192.678 110.021V110.5H192.596L192.525 111.07H192.433L191.985 111.722L191.904 111.803L191.944 112.017L192.474 112.974L193.37 113.901L193.411 114.023L194.592 115.378L194.796 115.806H194.877L195.285 116.814L195.478 117.068L195.692 117.72H195.774L195.896 118.331L195.977 118.983L196.13 119.727L196.344 120.114L196.588 120.592H196.629L196.751 121.122H196.823L196.955 121.988H196.914L196.996 122.639H197.077L197.189 123.159L197.322 123.424L197.434 124.035L197.607 124.473L197.841 124.819L198.055 125.338H198.126L198.299 126.072C198.676 127.121 199.247 128.129 199.684 129.249L199.796 129.952H199.878L200.01 130.563L200.245 131.51H200.336L200.408 132.121H200.489L200.693 132.865H200.774L200.947 133.343L201.1 133.69L201.314 134.178L201.467 134.606H201.548L201.966 135.472L202.2 136.134L202.363 136.521H202.444L202.689 137.213L202.852 137.611L203.056 138.262H203.137Z" fill="white"/>
<path d="M79.4331 56.1877V56.6257H79.3516L79.3109 57.0127H79.2702L79.148 57.4404L78.9035 57.7459L78.211 58.5403L76.6629 58.0107L76.2148 57.4404L75.9806 57.196L75.8075 56.7581L75.6852 56.4933L75.5223 55.8822H75.6139V55.4443H75.6547L75.6852 54.4869L75.9806 54.0592L76.3778 53.499L78.0888 53.0916L78.9443 53.9268L79.1887 54.6295H79.2702L79.4739 55.7091L79.5146 56.1877H79.4331ZM80.4516 55.1795L80.3294 54.1406L80.1664 53.8453L79.8405 53.3564L79.7998 53.275L79.4331 52.9287L78.7813 52.3074C78.0888 51.8797 77.1111 52.3584 76.2148 52.1445L75.4815 52.7046L75.0742 53.2342L74.677 54.1406H74.6362L74.5038 54.711H74.4224V55.5767H74.5038L74.6362 56.7581H74.677L74.8807 57.7052L75.0334 58.1431H75.1149L75.4001 58.7949L76.2148 58.9375L78.7406 59.1921L79.1887 58.8357L79.7998 57.97L79.9627 57.7052V57.6237L80.4108 56.7581H80.4923L80.4516 55.1795Z" fill="white"/>
<path d="M145.027 64.325V64.3658L144.375 63.714L144.09 63.4593L143.397 62.5427L143.357 62.4104L142.094 61.229L140.922 60.2411L139.497 58.968L139.252 58.6217H139.171L139.13 58.4995L138.886 58.1023L140.556 58.8865C142.053 60.6281 143.418 61.2188 144.742 62.665L144.945 63.276H145.027L145.108 64.2435L145.027 64.325ZM144.049 68.5923L143.56 68.4701L143.642 68.246L144.293 68.022L144.334 68.1035L144.049 68.5923ZM110.277 63.6732L110.023 63.0723L111.214 62.6242L111.367 63.4593L110.277 63.6732ZM102.252 64.2843L101.885 64.8037L100.103 65.9851L97.4551 67.0239C95.9173 67.2785 94.8581 68.0627 93.4628 68.5108L91.4259 69.071L89.1548 70.3339L88.6252 70.6292C87.1688 70.9347 85.855 71.5458 84.7653 72.2893L82.2395 73.379C80.2128 74.7437 78.2676 76.2612 76.8621 78.3389L76.3427 78.899L74.6317 78.3389L74.1734 77.6056L74.0207 77.2491L73.4809 76.5973L73.4096 76.3325H73.3281L72.9208 75.7316L72.5541 75.0391L72.3504 74.5095L72.0245 73.9086L71.9023 73.379H71.8208L71.6579 72.9411L71.6171 72.6356H71.5357L71.4135 71.943L71.2912 71.2403H71.2098L71.169 70.6292L71.1283 68.5923L71.2098 67.9405L71.1283 67.1156V65.5879H71.169L71.2912 65.0685V63.5001H71.2098V62.4511H71.2912L71.169 61.5345H71.1283L71.0061 60.8929H70.9246V60.017L71.2098 59.8031L72.1773 59.3143L72.3504 59.0597L72.5949 58.7134V57.9292H72.7171V57.532H72.7985L72.8291 56.7478H72.88L72.8291 55.8414L72.5541 54.497L71.9838 53.7943L71.1283 53.4888V52.7962H71.169L71.2098 52.3175H71.2912L71.3727 51.7472H71.4542L72.4319 50.0566L72.5949 49.6696L72.7985 49.4048L73.155 48.7428L73.4096 48.478L73.4809 48.0502H73.5726L73.4503 47.4392L73.3281 47.266L73.0837 46.879L72.88 46.4411H72.9208V46.1356H72.9615C72.88 45.0051 73.155 44.007 72.9615 42.9173L73.043 42.8765L73.0022 42.6525H73.043L72.9615 41.4813H72.88L72.7985 40.8295H72.7171L72.5541 40.0453L72.5134 39.699H72.4319L72.3504 39.037H72.269L72.2282 38.0899C71.9838 37.1325 72.1467 35.6965 72.106 34.5151L72.1773 33.0791H72.2282L72.3504 32.6921V31.2052H72.4319L72.5541 30.3395H72.5949V29.6367L72.7578 29.5553L73.0837 29.8201C73.6235 31.1339 74.1734 32.4375 74.9169 33.6392L75.2326 34.729H75.2836L75.4771 35.4317H75.5585L75.7317 35.778L75.7622 35.9613L75.8437 36.5622L75.8844 36.6029H75.8437V37.8658H75.7622L75.6502 38.8333L75.7317 38.8741H75.6502L75.7317 38.9148H75.6502V39.2203H75.7317V39.3425H75.6502V40.2082H75.6095L75.5585 41.135H75.4771L75.5585 42.5303H75.4771V43.3043H75.4058L75.365 44.9134H75.3243V46.0948H75.4058L75.6502 46.3494L76.4955 45.5652V45.4023H76.5362V44.4348L76.6686 42.958V42.571H76.7094L76.6686 41.3998V40.7378H76.7094L76.7399 39.9027H76.8214L76.9538 39.1287V38.2121H76.9945L77.0353 37.0001H77.076L77.0353 36.9492H77.076L77.188 34.6882H77.2288L77.3612 33.904V33.5578H77.4325L77.5547 32.9467H77.5954L77.7176 32.2949H77.7584L77.8806 31.2968H77.9722V29.9015H77.8806V29.2905H77.9722L77.9315 29.2497H77.9722L78.0435 28.6387H78.125L78.2065 27.9359H78.288L78.4102 27.3758H78.4509L78.5731 26.9073L78.7768 26.724L79.5101 27.6406L79.6323 28.0785L79.8767 28.4655L80.0397 28.7711L80.2434 29.4331H80.2841L80.4878 29.8201L80.61 30.258L80.7322 30.5635L80.8545 31.3376H80.8952L81.0581 31.7347L81.1804 31.8977L81.3433 32.2949L81.547 32.9467H81.6285L81.7099 33.4355H81.7914L81.9849 33.9448L82.4025 34.6475L82.5654 35.1262L82.6062 35.5132H82.6877L82.7691 36.3483H82.8506L82.9321 37.601C83.0034 38.925 83.0747 40.4526 83.9811 41.4813L84.7246 42.2655C85.3662 42.9988 86.018 43.7015 87.2401 43.9663L88.9511 45.0968L90.1325 46.1356L90.4177 46.6957H90.4991L90.6621 47.0013C91.3546 48.2641 91.7111 49.5066 92.536 50.6167L92.9434 51.0445C95.2655 55.546 94.3285 53.3156 97.3737 56.4015L97.8218 57.0635L98.5958 58.581H98.6365L98.8402 59.1921L99.0032 59.8031H99.0846L99.2883 60.5873H99.3698L99.5328 60.9336L99.8587 61.5345L99.9809 61.7993L100.022 61.9317L102.252 63.0112L102.466 63.8871L102.252 64.2843ZM70.5987 58.6217L70.395 58.2755L70.2728 56.7478L70.3543 56.096H70.395L70.5274 55.5766L70.8431 55.047L71.2098 54.5785L71.3727 54.8025L71.5764 55.047L70.8431 56.4423L71.169 56.8904L71.5357 57.2265L71.7394 57.369L71.6986 57.8783H71.6171L71.2505 58.4079L70.5987 58.6217ZM10.9076 191.05L12.4556 190.011C13.5453 189.35 14.7369 188.779 15.8267 188.087L16.4785 188.535L16.5192 188.83L16.6007 189.747L16.7738 191.01H16.8044V192.313H16.7738L16.6821 193.922L16.7738 194.32H16.8044L16.9673 195.012L17.0081 195.572H17.0895L17.1303 197.67L17.2932 199.412L17.4562 200.746L17.4969 200.807H17.4562L17.5376 200.929H17.4562L17.4969 201.011H17.4562L17.3747 201.673L17.171 201.887L16.8858 201.846L16.2748 200.929L16.1933 200.746L15.5822 199.615L15.1036 199.055L14.7369 198.281H14.686L14.3194 197.67L14.1259 197.487C13.7999 196.805 12.8222 196.743 11.9158 196.805C10.7853 196.927 9.92985 197.355 8.87066 197.619L7.52631 198.322L5.48942 199.32L4.91909 199.188L4.83761 198.841H4.87836L5.01075 198.057L5.20426 197.619L5.36721 197.355V197.008L5.62182 196.743L5.8968 195.969H5.94772L6.05975 195.572C8.48365 192.171 7.60779 194.635 9.7669 192.008L10.9076 191.05ZM122.804 58.6625L122.937 58.581L123.497 58.1431H125.167V58.4079L124.648 58.8458L122.804 59.1106V58.6625ZM187.547 97.7912C186.539 96.8746 185.591 95.8765 184.828 94.8275L184.288 93.1369L183.677 92.648L183.443 92.2203L183.239 91.3546L181.65 89.2159C180.683 88.5233 180.184 87.3521 179.053 86.8225L177.709 85.7328L177.424 85.305L177.536 85.0912L177.78 84.6838V84.0421L176.079 82.6876L175.214 81.8118L173.065 80.0397C172.046 79.5508 171.068 78.9907 169.846 78.9907C168.746 78.512 167.443 78.3796 166.424 77.687L164.275 76.6788L162.198 75.3446L161.342 74.6419L161.22 74.0308L163.501 74.5502L164.886 74.4688L164.968 73.9086L164.683 73.5114L162.89 73.0327L161.016 72.7679L159.438 71.5458L159.804 71.281L162.452 71.7699L163.42 71.943C164.316 72.1569 165.212 72.5948 166.19 72.4726L167.687 72.0245L167.483 71.6375C165.447 71.4643 163.746 70.507 161.79 70.2524L159.876 69.4987L160.782 69.0201C161.953 68.8979 162.972 69.2849 164.031 69.2849C165.986 69.4987 167.687 70.1505 169.398 70.894L171.517 71.9023L172.168 71.5458V70.8533L171.639 70.4153L169.846 69.071C168.787 69.2849 168.268 68.2053 167.168 68.409C165.498 68.2053 163.868 67.6757 162.126 67.8488L160.09 67.5433L159.804 67.1563L160.09 66.8915L161.75 66.7693C162.646 66.6267 163.542 66.6267 164.479 66.5452C165.864 66.3314 167.483 66.4128 168.869 66.6776L169.113 66.5045V66.0666C167.249 65.2416 165.131 65.7203 163.094 65.537L160.65 65.6796L160.405 65.374L162.198 64.3658C163.257 63.7649 164.642 63.6732 165.62 62.889C166.597 62.4511 167.728 62.4103 168.787 62.3289L170.865 60.8419L171.028 60.5466L171.567 59.5383L172.005 58.805L172.128 58.0208H172.168L172.209 57.4505L172.25 56.9311L172.372 55.5358L172.413 54.1406L172.535 54.0998L172.413 53.1832L172.535 52.6638V50.9223L172.454 50.8408C172.413 49.9649 172.454 48.6613 172.413 47.5309L172.616 47.0013L172.535 46.0948L172.616 44.4755L172.698 43.345L172.779 43.3043C172.779 42.2146 172.82 41.2165 172.861 40.1675L172.779 39.699C172.494 38.1917 172.728 34.0772 172.413 32.3458L172.25 31.3783C172.331 30.4209 172.087 29.6367 172.168 28.6794L172.005 28.2924L172.087 27.335L172.005 27.2943L171.924 25.512L171.802 25.1658L171.639 24.8602V23.852L171.567 23.8112L171.435 22.5382L171.15 21.9373L171.068 21.0614L170.946 20.155L170.865 19.0245V16.8043L170.743 16.7636L170.824 16.6719L170.743 16.6312L170.824 16.0201H170.783L170.743 14.5841L170.661 14.5332L170.59 13.199C170.06 10.4085 169.907 7.62812 168.991 4.92923L168.634 3.79876C168.186 2.79049 168.135 1.27301 167.402 0.437884L166.597 -4.00636e-05L164.428 0.488798L164.194 0.967477L163.868 1.31375L163.542 1.87388L163.216 2.26091L162.687 3.18769L161.953 4.66445L161.261 6.14118L160.853 6.83373L160.405 7.65867L160.13 8.01512L159.876 8.40213C159.479 9.45113 158.613 10.1437 158.053 11.0603L157.676 11.7223L156.871 12.9342C154.071 18.1996 151.453 23.4853 148.734 28.7303L148.449 29.2497L148.286 29.7793C146.646 37.0205 143.917 41.7257 140.556 48.2743L140.464 48.6613L140.097 49.2622L140.301 49.8325L140.464 52.2768C141.075 53.224 142.012 54.0591 142.705 54.9248L143.56 56.0552C143.957 57.4709 145.322 58.6625 145.19 60.2411V60.7095L144.171 60.2003L142.827 59.1513C142.053 58.2347 140.922 57.4912 139.731 57.0126C139.252 56.5848 138.845 55.6173 137.908 56.0552L137.541 56.7478L137.175 57.0126L136.604 57.7561C137.694 58.8865 139.252 59.6707 140.423 60.7095L142.012 62.1048L143.56 63.8464L144.905 64.763L145.027 65.1907L145.149 65.8018L145.027 66.1073L144.701 66.3721L143.886 65.9342L142.257 64.6306L141.167 63.6325C140.271 62.889 139.171 62.4511 138.234 61.7178L136.757 62.0233L137.735 62.9705C138.641 63.7649 139.822 64.1519 140.749 64.8954L141.034 65.4555L140.597 65.374C138.712 65.1907 137.012 64.5084 135.097 64.2843C134.16 64.325 133.467 63.6732 132.49 63.8056C131.359 63.1946 129.923 63.5408 128.793 62.9705L128.62 62.7668L128.059 62.4511C126.797 62.665 125.574 62.6242 124.281 62.7159L123.415 62.5427L121.959 61.8808L122.03 60.8929C122.193 59.7115 123.741 60.4447 124.352 59.6707C125.625 59.63 126.471 58.6217 127.734 58.6217L128.059 57.9699L126.145 57.7561L126.226 57.5727L126.593 57.2265L128.62 56.4423L128.426 56.0552L127.571 56.1876L126.063 56.7987C124.974 56.7478 124.026 56.9718 122.937 57.0126L122.193 56.5339L121.389 57.6338C121.114 58.2958 121.837 58.6726 121.226 60.2818L120.981 62.1456L119.749 62.4511C118.455 62.7159 117.152 62.6242 115.889 62.9298L113.781 63.2353L113.404 61.8808L113.363 61.1067L113.496 60.2411L113.567 60.2003L113.496 58.3671L113.567 58.1023L113.496 57.7968L113.567 57.0126L113.781 56.6256L113.862 55.933L113.934 55.1081L114.015 54.497L113.893 54.1406L113.689 53.224L113.455 52.6638L113.404 51.5333L111.367 50.1788L110.074 49.1807C109.167 47.4392 109.31 46.3393 109.748 44.4755L109.911 44.0885L110.196 43.5283C110.817 41.8785 111.438 40.2693 111.866 38.5685L111.978 37.825L112.477 35.5539H112.518L112.559 35.1262L112.711 34.2605C113.506 31.6431 114.585 29.209 115.451 26.6425L115.685 26.0722L115.767 25.6342C118.058 19.1875 119.922 17.4052 123.263 12.15L124.719 10.3677L125.697 9.45114L126.145 9.87888C126.685 11.7834 127 13.7388 127.367 15.6636L127.285 18.1079L127.204 18.1487L127.448 18.6783C127.693 20.5828 127.927 22.4771 128.019 24.3816L128.059 25.899C128.324 27.1416 128.426 27.5693 128.62 28.9035L128.793 29.3719V30.645L128.874 30.6857C128.793 31.8162 129.037 32.6921 128.956 33.8226L129.037 34.4234L129.231 34.9938V36.5622L129.078 37.2955L129.037 38.3852L128.956 38.7315L128.874 39.8212L128.793 39.9027L128.752 40.9517L128.793 42.0414L128.874 42.3062L129.037 42.6932L129.119 44.007L129.231 44.394L129.404 44.781L129.485 45.5245L129.638 45.9624L129.73 47.8364H129.689L129.597 48.7021L128.874 50.4436C128.1 51.4417 126.96 52.399 125.452 52.3583L123.344 53.3665L122.285 54.4054L122.193 55.0062L122.397 55.3118L122.438 55.9738L122.896 56.2386C123.782 55.9738 124.719 55.8414 125.625 55.5358L126.96 55.271L128.426 55.0062L126.348 54.3544L125.452 54.4054L125.371 54.1406L127.408 53.0508C128.304 52.4805 129.159 51.8796 129.923 51.1463L130.341 50.4029C131.115 49.6085 130.86 47.8364 130.83 46.7976V46.0541L130.707 45.443L130.534 44.781V41.522L130.463 41.4813L130.249 40.7786V38.1306L130.382 38.0899V37.1325L130.463 35.5132L130.382 35.0345L130.178 34.3827V31.5107L130.249 31.4699L130.178 31.0727C130.392 28.6794 129.73 26.4083 129.638 24.076L129.557 23.4242C129.027 21.8762 129.546 21.3772 128.956 20.155L128.874 19.106L128.671 18.4949C128.793 17.5478 128.548 16.7636 128.62 15.7655L128.508 14.9813C128.192 11.0195 127.54 11.2334 127.041 8.40213L126.837 7.84198L125.086 7.80125L124.24 8.74841L122.896 10.0215L122.764 10.1844L122.692 10.6733L122.438 11.101L121.877 11.8445L120.767 13.6268L119.922 14.6758C118.343 16.0812 118.231 17.782 116.663 19.6763L116.582 20.155L116.337 20.7151C115.502 23.5057 114.025 25.8889 113.404 28.5063L112.956 29.4331L112.885 29.9015L112.63 30.5126L112.436 30.7672C111.55 33.9753 110.552 34.7799 110.196 38.4769L110.074 39.3935L109.911 39.699C109.789 42.2655 107.222 45.6671 108.24 48.0502L108.444 48.5798L108.689 49.0483L109.218 49.9649C109.829 51.0037 111.174 51.0954 112.111 51.8389L112.956 52.5416L112.233 53.9674L111 53.448C109.748 53.224 108.892 52.3175 107.874 51.788L105.552 51.0038L104.666 51.4009L105.725 52.3175C106.703 52.399 107.629 52.7453 108.24 53.4073L107.385 54.2322L106.774 55.0062L109.055 55.1488C110.114 55.4544 111.459 55.2303 112.304 56.096L112.111 56.7478L109.544 56.9718L108.332 57.4098L108.159 57.7153L109.656 57.6338L111.907 57.7153L112.019 58.6217L111.5 59.1921C110.481 59.4161 109.422 59.5383 108.444 59.8031L108.159 60.3633L108.729 60.5466L111.092 59.8439L111.937 60.0577V60.9336L111.133 61.7993L109.3 62.7159L107.029 63.6325L105.358 64.5898L104.421 64.6713L104.493 63.714L104.574 63.1946L104.452 62.6242L104.299 62.1456L103.118 61.5345L101.04 61.1475L100.959 60.7503L100.796 60.1494L100.062 58.1431L99.9401 57.9292L99.5735 57.2265C99.2069 55.933 98.1477 55.1896 97.2922 54.273L95.7441 53.0508C93.1165 49.6798 93.0453 48.0401 90.8658 44.9542L88.9104 43.1719C87.3623 42.6117 85.855 41.8683 84.8875 40.6054L84.806 40.0453L84.7246 39.4749L84.5209 38.9148L84.4801 37.601L84.2663 36.8677V36.7353L84.3477 35.8187L84.195 35.391L84.0218 35.0345L83.8691 34.342L83.6552 34.0772L83.4209 33.2115L83.2172 32.9467L82.9626 32.2949L82.5247 31.6023L82.3108 30.9098L82.2803 30.3395L82.0359 29.9015L81.3433 28.0785L80.61 26.8055L80.4063 26.2046L80.2434 25.6342L80.0397 25.2472L79.7138 24.3306L79.5101 23.9945L78.6241 23.7705L78.0435 24.3306C76.9844 25.8787 76.7705 31.3986 76.3835 32.7736L75.9761 32.9467L75.4363 31.9995C74.7234 30.4311 74.2142 29.2192 73.654 27.6406L72.7578 26.4592L72.106 26.6018L71.9023 27.1619L71.7394 27.997L71.6171 28.5572L71.4542 29.5553L71.2912 30.1663L71.169 32.2032L71.0876 32.2542V33.2115L70.9246 34.0772V36.165L71.0061 36.2057L70.9246 36.4705V38.2121L71.0061 38.263L71.0876 39.6073C71.3727 40.5647 71.6375 41.4711 71.9023 42.4386L71.7801 43.345C71.9023 44.4755 71.6579 45.443 71.7394 46.5735L71.8208 47.266H71.8514V48.5798C69.4682 52.7962 70.2015 51.6046 69.5803 55.1488L69.5497 56.4932L69.4173 56.5848L69.5497 57.2672C69.5701 58.6523 69.8858 60.3022 70.0284 61.7993L70.2015 62.502C70.2015 63.5001 70.1098 64.0602 70.1506 65.1092L70.0284 65.15L69.9469 65.8018C69.5701 67.8387 69.4275 69.9163 70.2015 71.9023L70.5274 73.3383H70.558L70.8024 74.2549L71.5357 75.9862L71.9838 76.9028L72.6763 78.1657L71.6171 79.4286L70.7209 80.4267L70.0691 80.2535L70.0284 80.3859L69.7839 80.2535L68.9284 80.9868L68.7248 80.2535L68.8164 79.3471L68.2053 78.9907L67.4721 80.0804L67.0138 81.2109L66.7693 81.6895C65.0889 82.983 64.5186 85.5596 63.1946 87.3521L62.7465 87.953L62.5835 88.4418C62.0539 89.7862 61.3308 90.9981 60.7198 92.3017L60.068 93.3507L59.7828 94.1451L59.4874 94.5322C57.2469 97.8116 55.872 101.59 55.3016 105.623L55.0979 106.234L55.0165 107.497H54.9757L54.9248 107.935L54.8535 108.363L54.6906 108.76L54.6091 109.89L54.4054 110.277L53.1425 112.06L52.0019 112.722L50.4538 113.414C48.4577 113.76 46.5939 114.545 44.7607 115.196L44.0274 115.757C42.7238 115.807 42.0822 116.806 41.2165 117.457V117.59L40.9721 117.987L40.9008 118.629L40.6055 119.199L40.5342 120.553V121.378L40.6055 121.949L40.7277 122.59L40.6869 123.772L40.2796 124.648L39.5157 126.511L39.2306 127.683L39.1491 127.866L38.4973 129.22L37.9575 129.119L36.5826 129.159V129.119L35.4012 128.558L33.8124 128.905L33.8939 129.516L34.4642 129.821L36.6946 130.473L38.3241 131.257L38.5787 131.736L38.7824 132.52V133.956L38.6908 134.353L38.4158 134.74C37.1937 134.903 36.053 135.26 34.9123 135.525C33.4458 135.912 32.2236 136.655 30.7978 137.124L28.5165 138.173L28.4859 138.743L28.7304 139.354L30.7978 138.743L33.3337 137.531C34.9531 137.083 36.4196 136.176 38.1714 135.993L38.4158 136.39L38.538 136.92L38.4158 137.572L38.2528 137.959L38.1714 138.437L37.9575 138.784L37.8047 139.435L37.7232 140.097L37.5603 140.393L37.3464 141.045L35.7271 142.175L35.116 143.051L37.2751 142.827L38.1714 143.703L38.2528 144.66L38.4158 145.098L38.5787 145.617L38.7824 145.923L38.8639 146.829L39.0167 147.227L39.1491 147.838L39.3018 148.225L39.475 148.754L39.7601 149.192L39.5565 149.803C38.7417 150.19 37.8455 150.577 36.8678 150.669L35.3605 151.229L34.7494 151.759L34.5864 152.451L34.7494 153.582L34.8716 153.969L34.7494 154.009L33.8939 155.191L33.2014 156.678L32.6412 157.666L31.4904 159.244L30.1867 159.937L28.3637 161.668L27.7527 162.503L27.6304 162.85L27.4675 163.247L27.2129 163.674L25.6343 165.029L25.064 166.078C24.6566 167.331 23.2409 167.809 22.6299 168.899C22.3345 169.856 21.1124 169.938 20.705 170.773C19.656 171.425 19.0042 172.382 18.0672 173.115L16.5599 174.297L15.1036 174.989L15.7044 176.038L14.8184 177.261C13.8407 177.861 13.1481 178.605 12.5371 179.481L11.8445 180.346L11.9158 180.733L12.2417 181.823L12.089 182.088L10.6122 183.779L10.1743 184.39L9.48173 185.52L9.35952 186.131L9.56321 186.477L9.48173 187.221L8.62624 188.433L8.13738 189.227L7.68927 189.869L7.64853 190.48L7.44484 191.264L7.20041 192.048L5.66256 193.831L5.33666 194.32L5.16352 194.747L3.95157 196.489L3.49327 197.538L3.42197 197.792L3.29976 198.444L3.12663 198.882L2.97386 199.493L2.84146 200.583L2.80072 202.141L2.6887 202.406L2.84146 202.976L1.82302 204.239C1.16103 206.449 0.947151 205.96 0.325899 207.498L0.478669 207.763C1.17121 208.995 0.672172 212.234 0.0407349 213.507L0 214.332L0.407378 214.597L0.774021 213.945L0.936971 213.161L1.01844 212.458L1.22213 212.112L1.38508 211.643L1.54803 210.941L1.46656 209.372L1.62951 208.893L1.82302 208.323L2.07763 207.804L2.60722 207.111V206.5L2.55629 205.94L2.6887 205.543L4.10434 203.801L5.01075 202.844L5.24499 202.447V202.284L4.55245 201.102L4.79688 200.929C5.85606 200.583 6.83377 199.88 8.01517 199.799C9.15583 199.269 10.4187 198.098 11.8038 198.841L13.8712 200.491L14.3194 201.153L14.4925 201.622L14.6453 202.06L16.1526 203.496L17.6191 203.282L18.3524 202.1L18.5154 201.5L18.6783 200.929L18.882 200.451V197.538L18.7496 196.743L18.6783 196.143L18.5968 195.053H18.5154V189.227L18.3524 188.698L18.1487 188.219L18.0672 187.791L17.4154 186.61L14.9712 187.089L14.5638 187.445L12.4556 188.575C11.5899 189.003 10.9788 189.92 10.0113 189.971L10.378 188.922L10.7039 188.046L10.8668 187.394L10.9381 186.569C11.8445 186.009 12.4963 185.133 13.4333 184.573L13.5861 184.176L12.7 184.084L12.089 184.217L12.3232 183.83L13.8712 182.088C15.0526 181.518 15.5007 180.469 16.397 179.695L16.7229 178.473L15.7044 178.391V178.167C19.3708 174.989 18.9838 172.953 24.4122 169.469L26.612 167.249C27.5082 167.208 27.6305 166.292 28.323 165.976C29.5757 164.459 31.745 164.072 33.405 162.85C34.9123 161.933 36.6233 161.505 38.4158 161.159L41.1045 160.456L42.4387 160.191L42.5201 161.159L43.1414 161.363C44.3941 162.065 45.8606 162.676 47.4392 162.544C48.3456 162.198 49.802 162.025 50.4946 162.758C51.513 163.023 52.0426 163.888 53.1425 164.031L54.8535 164.601L56.5238 165.895L57.8579 167.066C58.5912 167.901 59.8133 168.196 60.4652 169.164L62.0641 170.203L63.4798 170.987C64.4982 171.466 65.1907 172.341 66.2907 172.728L67.1462 172.545L66.6166 171.425L64.5797 170.376L62.0641 168.807C60.9948 168.196 59.9356 167.463 59.131 166.679L57.2061 165.029L55.0979 163.501C54.0388 163.328 53.1018 162.717 52.0833 162.412C51.2788 162.157 50.627 161.587 49.7206 161.414L47.6938 161.322L45.9014 160.538C44.9644 160.762 44.9237 159.713 44.1089 159.591C43.0905 159.499 41.9905 159.366 40.9314 159.499C39.8416 159.366 39.1083 160.415 38.039 159.937C37.1529 159.978 36.3789 160.415 35.5234 160.456C34.3827 160.894 33.3337 161.322 32.356 162.025L30.7673 162.85L29.0563 163.247L29.1378 162.676C29.7488 161.546 31.0932 161.2 31.9792 160.232L32.356 160.191L33.4458 158.939L33.6087 158.409L33.8124 158.114L34.5457 157.238L35.6456 155.629L37.1122 154.233L37.4788 153.358L38.039 152.533L38.2528 151.759C39.0167 151.056 40.2083 151.097 41.1452 150.75L41.3387 150.404L40.7277 149.447L41.1045 148.265C40.2184 144.966 38.5889 143.458 39.0167 139.262L39.2306 138.865L39.3018 138.264L39.475 137.786L39.5565 137.225L39.7601 136.737V135.789L39.9231 135.046L40.086 133.691L40.2796 133.264V132.255L40.086 131.736L39.9231 131.125L39.9944 130.595L40.1675 129.77L40.1268 129.261H40.1675L40.2083 128.732C41.3693 126.705 40.7378 126.97 41.4711 125.513L42.4896 124.25L42.2044 123.375L41.9498 122.336L41.8378 120.065L42.846 117.641L44.2719 117.254L46.0949 118.282C47.2865 118.506 47.8568 119.637 48.6715 120.207L48.8752 120.553L49.4761 121.552L49.7613 122.285L49.6493 122.468V123.772L50.0159 124.169L51.0649 123.823V122.03L50.8205 121.378L50.627 120.808L50.2603 120.116C49.6085 119.331 48.916 118.506 48.0197 117.936L47.4392 117.457L45.8199 116.378L47.4087 115.37L48.0197 115.594L48.091 116.021C49.0382 117.03 49.9344 115.329 51.0649 115.634L51.3501 116.205V116.683L52.2056 116.724L54.9248 116.897C56.0757 117.549 54.2832 117.763 54.4869 118.547L56.8089 119.291L56.6867 119.678L56.4423 120.065L56.5238 120.462L57.8987 120.951L58.357 120.553L57.2876 119.515L57.5015 118.73L57.5728 118.68L57.5015 118.384L56.0757 116.419L55.6683 115.858L54.3239 115.37L53.3462 114.585L53.5092 113.373L55.6683 111.632L56.2692 111.937L56.8802 111.713L56.9617 111.459L57.0534 109.972L57.2061 109.717L57.2876 108.984L57.5015 108.19L57.5728 107.548L57.7459 107.283L57.8579 106.58L58.0311 106.153L57.8987 105.45L57.2876 105.888L57.1348 106.275L57.0534 106.886L56.8802 107.365L56.5238 108.933L56.3201 109.493L56.2692 109.106L56.4423 108.587V107.446L56.5238 107.405L56.5951 105.623L56.7682 105.104C57.2876 103.189 57.2774 101.009 58.4792 99.4003L59.2023 98.0051L60.017 96.0496C61.6873 93.1776 63.3372 89.0325 65.0176 86.3438L65.6389 85.1726L66.1685 84.643L66.1277 85.7328L66.6166 86.1198L67.0952 85.1726L67.7063 83.6959L67.9507 83.207L68.2461 82.7793L68.8572 82.5654L69.458 83.2478L70.395 82.82L71.9023 80.8646L72.0653 80.5998L72.2282 80.2128L73.4096 79.0416L75.7317 79.3471L75.8437 79.5508L76.0576 80.3859L77.3204 79.8156C77.9723 78.8175 78.899 78.0333 79.6323 77.1167C80.9359 75.9862 82.0358 74.7743 83.6144 73.9086L84.0218 73.9901L85.4986 73.766C86.517 72.8189 88.065 72.4726 89.1955 71.7291C90.0103 70.9857 91.2732 70.7209 92.2916 70.2015C93.1878 69.7635 94.247 69.7635 95.0923 69.3358C96.6404 68.9386 97.8218 67.9813 99.2476 67.5026C100.429 67.2785 101.284 66.4536 102.537 66.5045C103.688 66.2906 104.747 65.7203 105.918 65.5879C107.029 65.4555 108.037 64.8954 109.137 65.0685L110.675 64.6713C111.652 64.2028 112.762 64.3658 113.862 64.2435C114.748 63.938 115.818 63.9788 116.744 63.8056C117.967 63.3677 119.067 64.1519 120.289 64.0195C123.782 63.6325 127.285 64.2436 130.575 64.8546C131.919 65.2416 133.467 65.0685 134.812 65.4962L135.83 65.6388L137.012 65.8018L137.623 66.6267L137.5 67.0748L138.712 68.2053L137.256 68.9386L137.215 69.3765C138.061 69.9469 139.293 69.5904 140.301 69.6821L142.134 69.8043L143.968 69.7228L144.579 70.5885L145.312 70.7209L145.556 70.3339L145.638 69.6821L145.801 68.6738C146.554 66.3823 146.188 63.2353 146.616 61.1475V59.1921C141.401 48.091 139.772 54.2526 145.271 42.8358L145.556 42.0923C145.617 39.8823 147.807 37.6315 147.827 35.8187L147.96 34.9938L148.245 34.4744L148.367 33.6902H148.449L148.479 33.3337C151.932 22.8844 159.122 12.2926 164.357 2.79049L165.498 1.27302L167.076 1.44614L167.249 3.65618L167.331 3.69691L167.534 4.44038L167.769 5.0107L167.942 5.44865L168.135 6.10044L168.227 6.88464L168.38 7.80125L168.502 8.97246L168.665 9.62428V10.714L168.746 10.7955L168.869 12.4046H168.92L168.991 13.8406C169.266 14.4212 169.469 15.9081 169.724 16.2849V17.4663L169.806 17.507V21.204L169.897 21.2855L169.969 21.8558L170.131 22.2937L170.264 22.9048L170.417 23.9945V25.5528L170.59 25.9907L170.702 26.9073L170.865 27.5998L170.946 28.5063L171.15 28.7711L171.028 29.0257L171.15 29.9932L171.191 32.5597L171.313 32.6004L171.394 34.9938L171.517 35.9613H171.567L171.476 36.0835C171.435 38.1408 171.975 40.2999 171.802 41.6035L171.761 43.396L171.639 43.4367V44.4348L171.476 45.1375V46.3494L171.394 46.3902L171.313 47.8364L171.394 49.1807V51.6657L171.191 52.2361L171.313 52.8777V54.0183L171.191 54.0998V55.5358L171.15 56.4932L170.946 57.0126L170.865 57.8783L170.702 58.4995L170.417 59.4161C169.643 60.6281 168.054 61.066 166.516 61.1067C165.62 61.066 165.009 61.7585 164.194 61.8808C163.257 62.3289 162.157 62.4103 161.108 62.665C160.049 63.0723 159.153 63.8871 158.572 64.8037L158.379 65.2824C158.613 70.7922 155.924 73.1448 155.894 76.0779L156.332 76.4751L157.401 75.6909L157.594 75.3446L157.768 74.815L159.224 75.202C160.405 75.4668 161.302 76.1186 162.157 76.8214C163.868 77.7685 165.447 79.0416 167.402 79.5101L168.135 79.8156C169.072 79.948 169.806 80.4776 170.743 80.6405C171.965 81.4757 173.584 81.8117 174.562 82.9524L174.45 83.5126L173.065 83.7366L172.372 84.256L174.165 85.305L177.016 86.9142C178.595 87.4336 179.705 88.6048 180.591 89.7353L180.795 90.3056L180.469 90.4889C179.654 90.1834 178.758 89.7862 177.821 89.8778L177.016 90.438L178.147 91.0491C179.735 91.3953 181.243 92.1795 182.261 93.2184L183.85 94.7868L185.306 96.3144L186.406 97.5264L187.384 98.6161H187.873L187.547 97.7912Z" fill="white"/>
<path d="M78.1653 54.642L78.3282 54.9068L78.369 56.078L78.4097 56.7705L78.3282 56.8622L77.3098 57.1677L76.9431 56.9029L76.7394 56.465L76.3728 55.253L76.6682 54.9068V54.7642L77.1061 54.5605L78.1653 54.642Z" fill="white"/>
</g>
</g>
<defs>
<clipPath id="clip0_2_37">
<rect width="499" height="240.09" fill="white"/>
</clipPath>
</defs>
</svg>
